<svg width="1280" height="832" viewBox="0 0 1280 832" fill="none" xmlns="http://www.w3.org/2000/svg">
<g clip-path="url(#clip0_16_3)">
<path d="M149 113C82.7511 112.324 43.6874 174.578 -17 148C-88.8202 116.546 -95 -37 -95 -37H1305.5C1305.5 -37 1323.01 59.9538 1288 102C1257.17 139.033 1221.6 145.016 1173.5 148C1123.09 151.128 1099.35 117.004 1049 113C978.57 107.398 941.924 153.675 871.5 148C821.346 143.958 797.81 113.848 747.5 113C693.988 112.098 668.516 147.38 615 148C559.026 148.648 531.927 115.376 476 113C408.662 110.139 374.393 148.929 307 148C243.807 147.129 212.195 113.645 149 113Z" fill="url(#paint0_linear_16_3)"/>
<path d="M190 707.606C123.751 708.281 84.6874 646.027 24 672.606C-47.8202 704.06 -54 857.606 -54 857.606H1346.5C1346.5 857.606 1364.01 760.652 1329 718.606C1298.17 681.572 1262.6 675.59 1214.5 672.606C1164.09 669.478 1140.35 703.602 1090 707.606C1019.57 713.207 982.924 666.93 912.5 672.606C862.346 676.648 838.81 706.758 788.5 707.606C734.988 708.507 709.516 673.226 656 672.606C600.026 671.957 572.927 705.23 517 707.606C449.662 710.466 415.393 671.677 348 672.606C284.807 673.477 253.195 706.961 190 707.606Z" fill="url(#paint1_linear_16_3)"/>
</g>
<defs>
<linearGradient id="paint0_linear_16_3" x1="-19.1973" y1="70.2992" x2="1308.85" y2="110.253" gradientUnits="userSpaceOnUse">
<stop stop-color="#EB6402"/>
<stop offset="0.869792" stop-color="#EBB802"/>
</linearGradient>
<linearGradient id="paint1_linear_16_3" x1="21.8027" y1="750.306" x2="1349.85" y2="710.352" gradientUnits="userSpaceOnUse">
<stop stop-color="#EB6402"/>
<stop offset="0.869792" stop-color="#EBB802"/>
</linearGradient>
<clipPath id="clip0_16_3">
<rect width="1280" height="832" fill="white"/>
</clipPath>
</defs>
</svg>
